# xmcd CD database file
#
# Track frame offsets:
#	150
#	29098
#	45238
#	65243
#	81864
#	108328
#	127675
#	144850
#	169605
#	185840
#	209199
#	229046
#
# Disc length: 3384 seconds
#
# Revision: 0
# Processed by: cddbd v1.5.2PL0 Copyright (c) Steve Scherf et al.
# Submitted via: CDex 1.51
#
DISCID=a80d360c
DTITLE=Colin Linden - Sill Live
DYEAR=2012
DGENRE=Blues
TTITLE0=Big Mouth
TTITLE1=Who`s Been Talking
TTITLE2=Between The Darkness And The Light Of Day
TTITLE3=Smoke 'Em All
TTITLE4=Sugar Mine
TTITLE5=Remedy
TTITLE6=John Lennon In New Orleans
TTITLE7=From The Water
TTITLE8=Dark Night Of The Soul
TTITLE9=Too Late To Holler
TTITLE10=Sinking Down Slow
TTITLE11=I Give Up
EXTD=YEAR: 2012
EXTT0=
EXTT1=
EXTT2=
EXTT3=
EXTT4=
EXTT5=
EXTT6=
EXTT7=
EXTT8=
EXTT9=
EXTT10=
EXTT11=
PLAYORDER=
